inDegrees=no
num_controls=7
num_derivatives=13
num_iterations=108
num_multipliers=7
num_parameters=0
num_slacks=7
num_states=26
objective=0.448429
objective_accelerations=0.049504
objective_balance=0.007530
objective_effort=0.036767
objective_height=0.349688
objective_ligament=0.004939
solver_duration=1529.061253
status=Solve_Succeeded
success=true
DataType=double
version=3
OpenSimVersion=4.5
endheader
time	/jointset/ground_pelvis/pelvis_tilt/value	/jointset/ground_pelvis/pelvis_tx/value	/jointset/ground_pelvis/pelvis_ty/value	/jointset/hip_l/hip_flexion_l/value	/jointset/hip_l/hip_adduction_l/value	/jointset/hip_l/hip_rotation_l/value	/jointset/back/lumbar_extension/value	/jointset/patellofemoral_l/patellar_flexion_l/value	/jointset/knee_l/knee_flexion_l/value	/jointset/knee_l/knee_adduction_l/value	/jointset/knee_l/knee_rotation_l/value	/jointset/ankle_l/ankle_angle_l/value	/jointset/subtalar_l/subtalar_angle_l/value	/jointset/ground_pelvis/pelvis_tilt/speed	/jointset/ground_pelvis/pelvis_tx/speed	/jointset/ground_pelvis/pelvis_ty/speed	/jointset/hip_l/hip_flexion_l/speed	/jointset/hip_l/hip_adduction_l/speed	/jointset/hip_l/hip_rotation_l/speed	/jointset/back/lumbar_extension/speed	/jointset/patellofemoral_l/patellar_flexion_l/speed	/jointset/knee_l/knee_flexion_l/speed	/jointset/knee_l/knee_adduction_l/speed	/jointset/knee_l/knee_rotation_l/speed	/jointset/ankle_l/ankle_angle_l/speed	/jointset/subtalar_l/subtalar_angle_l/speed	/forceset/tau_hip_flexion_l	/forceset/tau_hip_adduction_l	/forceset/tau_hip_rotation_l	/forceset/tau_knee_flexion_l	/forceset/tau_ankle_angle_l	/forceset/tau_subtalar_angle_l	/forceset/tau_lumbar_extension	lambda_cid13_p0	lambda_cid13_p1	lambda_cid13_p2	lambda_cid13_p3	lambda_cid13_p4	lambda_cid13_p5	lambda_cid14_p0	/jointset/ground_pelvis/pelvis_tilt/accel	/jointset/ground_pelvis/pelvis_tx/accel	/jointset/ground_pelvis/pelvis_ty/accel	/jointset/hip_l/hip_flexion_l/accel	/jointset/hip_l/hip_adduction_l/accel	/jointset/hip_l/hip_rotation_l/accel	/jointset/back/lumbar_extension/accel	/jointset/patellofemoral_l/patellar_flexion_l/accel	/jointset/knee_l/knee_flexion_l/accel	/jointset/knee_l/knee_adduction_l/accel	/jointset/knee_l/knee_rotation_l/accel	/jointset/ankle_l/ankle_angle_l/accel	/jointset/subtalar_l/subtalar_angle_l/accel	gamma_cid13_p0	gamma_cid13_p1	gamma_cid13_p2	gamma_cid13_p3	gamma_cid13_p4	gamma_cid13_p5	gamma_cid14_p0
1.5	-0.4531519768489394	-0.07626241131747802	0.7615247271042584	1.2752089333396	-0.309787393403002	-0.04633272455795161	-0.3429291083309743	0.6890549562298309	0.6890549562298447	-0.1730070519623722	0.1741499597431097	0.03283536342333392	-0.0499535645254697	0.7467102705327786	0.2690325211988351	0.4945645534609722	-2.365794324387091	0.03316431669694545	-0.6072710996984648	0.5666304371207851	-1.752275937559231	-1.752275937559545	0.004492649327572197	-0.003349599237725638	-0.2255362087122935	0.009247361345304293	-0.249844745337835	0.01998903909758881	-0.0211564304592896	-0.2009381470050323	0.1433910838107193	0.04038919137855124	0.2241222024653417	7.1478678405565	-21.46970062402935	6.078370525588953	-5.535726766002099	-608.2037886441675	-56.98726771833822	-28.29429547720516	0.6175049054634968	0.6672473744385596	-0.3204909024630948	-1.446858522790132	0.5809278461276285	-0.275570192278757	1.650548584253361	-1.036734870397981	-1.036734870397968	0.03265962430699217	-0.02730473797631443	-0.1479184510115357	0.5558349543949701	2.636732390213846e-07	7.411153553888479e-07	-1.315072000764419e-06	-7.480464549914982e-08	3.522141776094802e-07	-6.117263099591097e-08	2.938200526556323e-07
1.51	-0.4456543406470498	-0.07353893318667307	0.7664534249840791	1.251480797457087	-0.3094277363364106	-0.05241893041069825	-0.337181609225184	0.6714826241326022	0.6714826241326	-0.1729624070677896	0.1741164557054339	0.03057277872049031	-0.04983440615526424	0.7527165004955901	0.2756333361691039	0.4910790763044858	-2.379516705016123	0.03876781142846313	-0.6098660935617441	0.5828027726257785	-1.761949794265104	-1.761949794265239	0.004404698520762222	-0.003366669825543578	-0.2269322273166872	0.01458611497119682	-0.2419135013892355	0.01932915041201282	-0.02101744079976917	-0.199543167839296	0.1432225151411086	0.03975580181688067	0.2179974683275327	7.32575611439237	-21.33337044078429	6.179545285852703	-5.481272379828261	-603.8515513487582	-57.27948400861685	-29.29923996917828	0.577130012486479	0.6520548594290572	-0.3769201335385975	-1.287483283530084	0.5500900315219186	-0.2356571638355026	1.590584321890791	-0.8966492162621436	-0.8966492162353474	-0.03409472331426447	0.008923544399728733	-0.1281562312178591	0.5230486840276792	1.478493121594139e-07	9.823872814483083e-07	-7.698423993801557e-07	4.591242487741575e-08	2.778838427346903e-07	1.793373722937076e-08	2.36151854836951e-07
1.52	-0.4380996525513733	-0.07075033564594382	0.7713443992900754	1.227624926678168	-0.3090120383735331	-0.05852792483817336	-0.3312743851066903	0.6538207658391981	0.6538207658391828	-0.1729195561393003	0.1740823473145983	0.02829769129838961	-0.04966182962533156	0.7581206492902625	0.2820564031836882	0.4870198386960952	-2.391341303667968	0.04437249595430461	-0.6118288146443427	0.5985754396615113	-1.770181176794188	-1.770181176794144	0.004133856108381644	-0.003470469869992533	-0.2280367525636632	0.01993099329074142	-0.2339822574406384	0.01866926172643711	-0.02087845114023137	-0.198148188673563	0.1430539464714978	0.03912241225521012	0.2118727341897219	7.495836778408312	-21.19805411461175	6.283601412785361	-5.412522420080575	-599.6231169598078	-57.62884025266145	-30.28591412387674	0.4970886718356103	0.6316977833016872	-0.4352429928439683	-1.067302127352373	0.5811658049923779	-0.1491156361426007	1.570614890401207	-0.7482400350401957	-0.7482400350403063	-0.003918696807137204	-0.04465062930249979	-0.08961977952798107	0.5570598931253838	7.980377650062395e-08	1.139120544762851e-06	-4.597911263389546e-07	1.170550931401198e-07	2.384784604784308e-07	7.126792099413825e-08	2.043550542055077e-07
1.53	-0.4304939405179785	-0.06789844788667204	0.776191972431309	1.203660310901199	-0.3085402336187488	-0.06465391546486161	-0.3252115185614077	0.6360839211576925	0.6360839211576845	-0.1728798748108828	0.1740470997334453	0.02601309154230561	-0.04943569695551663	0.7629173527245334	0.2882855545194822	0.4824046342498883	-2.401258359357427	0.04999286236451039	-0.6132871323344419	0.6139248115255358	-1.776938063581962	-1.776938063582045	0.003800441836033515	-0.003582462309676541	-0.2288285163225322	0.02530254706891357	-0.226075457026829	0.01786151985061808	-0.02076794967267752	-0.1967299480941162	0.1428966285804963	0.03839479912205497	0.205733522704209	7.661219601576985	-21.02211090409929	6.382456232059138	-5.328525574401864	-595.4886984922424	-57.92144087571512	-31.2500430111013	0.4553152105503025	0.6132137686773402	-0.4881354754444652	-0.9053650417685989	0.5530198223479014	-0.1316567330133164	1.506139653974731	-0.6019981599017477	-0.6019981599204833	-0.04814803278109157	0.005148097046445709	-0.06573973398507875	0.5281017158663522	6.252278149521304e-08	1.206031478910919e-06	-3.996168271622542e-07	1.355249591568466e-07	2.361808403793593e-07	9.721915876960957e-08	2.000466130855045e-07
1.54	-0.422843390643976	-0.06498533062205056	0.7809906982670932	1.179606233016929	-0.3080121156472008	-0.07079198264796392	-0.3189973500335707	0.618286990576457	0.618286990576457	-0.1728435466732509	0.1740106565575679	0.02372221713664893	-0.04915566902877928	0.7670882174119044	0.2943023042536335	0.4772503776062447	-2.409233725127924	0.05563513930724606	-0.6142441259273306	0.6288358361724273	-1.782198356739962	-1.78219835674017	0.003463217950388002	-0.003709588815450542	-0.2292916824781493	0.03071004467521534	-0.2181686566130225	0.01705377797479873	-0.02065744820509413	-0.1953117075146747	0.1427393106894944	0.0376671859888995	0.1995943112186942	7.817962011085719	-20.84673081225924	6.483772195427057	-5.224040418402485	-591.4878149077117	-58.26958614295793	-32.18738824025403	0.3719209224555832	0.5892174629731726	-0.5430534323313191	-0.6789641435597981	0.5855479114983467	-0.04885081670055055	1.482945446974566	-0.4489213090851738	-0.4489213090851776	-0.004680619466621825	-0.04767744252048487	-0.02390025887759308	0.5642486587513096	4.785762644384601e-08	1.267744227342631e-06	-3.558611951779841e-07	1.506838372050488e-07	2.356527015758418e-07	1.218160099814058e-07	1.973536925684016e-07
1.55	-0.4151542746784087	-0.06201314884724127	0.7857352531606001	1.155482091007439	-0.3074275181582438	-0.07693733473934292	-0.3126363566178934	0.6004449924860049	0.6004449924860007	-0.1728105460788467	0.1739730439177223	0.02142839509812099	-0.04882142463767826	0.770626332860974	0.3000938011555839	0.4715768332120347	-2.415266457739335	0.06128335454513963	-0.614746056099014	0.6432824269214024	-1.785946313510005	-1.785946313510181	0.003136871091159917	-0.003813368145707891	-0.2294141657938882	0.03614145351733893	-0.210253403853263	0.01609466635259935	-0.02059145800167322	-0.1939672651594837	0.1427745798346768	0.0367870698375851	0.193427276057141	8.025590237699186	-20.6156855392422	6.578106373999852	-5.156205616049764	-587.6071445846875	-58.53365445462703	-33.09361019574706	0.3284721493084521	0.5681120369969219	-0.5920225249117388	-0.5161797838071601	0.5541705631723197	-0.03862108758474683	1.413452882607112	-0.2995298969177543	-0.2995298969131638	-0.04639657344186783	0.008337477941711975	0.002373744250968317	0.532804406275706	3.620637394822503e-08	1.323467761796803e-06	-3.310227232197736e-07	1.620278812895164e-07	2.371633129606797e-07	1.448523723263591e-07	1.965221327459447e-07
